# 3ds Max Wavefront OBJ Exporter v0.97b - (c)2007 guruware
# File Created: 21.04.2020 22:45:26

#
# object Box001
#

v  -12.5698 -19.3998 -12.7251
v  12.7251 -19.3998 -12.7251
v  12.7251 -19.3998 12.5698
v  -12.5698 -19.3998 12.5698
v  12.7251 19.7105 12.5698
v  12.7251 19.7105 -12.7251
v  -12.5698 19.7105 -12.7251
v  -12.5698 19.7105 12.5698
v  12.7251 -12.4921 19.4775
v  12.7251 12.8028 19.4775
v  -12.5698 12.8028 19.4775
v  -12.5698 -12.4921 19.4775
v  19.6328 -12.4921 -12.7251
v  19.6328 12.8028 -12.7251
v  19.6328 12.8028 12.5698
v  19.6328 -12.4921 12.5698
v  -12.5698 -12.4921 -19.6328
v  -12.5698 12.8028 -19.6328
v  12.7251 12.8028 -19.6328
v  12.7251 -12.4921 -19.6328
v  -19.4775 -12.4921 12.5698
v  -19.4775 12.8028 12.5698
v  -19.4775 12.8028 -12.7251
v  -19.4775 -12.4921 -12.7251
v  -13.8920 -15.3253 19.0457
v  -12.5698 -15.5142 19.0457
v  14.0472 -18.9680 15.4030
v  12.7251 -18.9680 15.5919
v  -19.0457 -15.3253 -14.0472
v  -19.0457 -15.5142 -12.7251
v  15.5583 -18.9680 -14.0472
v  15.7472 -18.9680 -12.7251
v  -15.4030 14.1249 19.0457
v  -15.5919 12.8028 19.0457
v  19.2010 14.1249 15.4030
v  19.2010 12.8028 15.5919
v  -19.0457 14.1249 -15.5583
v  -19.0457 12.8028 -15.7472
v  15.5583 14.1249 -19.2010
v  15.7472 12.8028 -19.2010
v  -15.5919 -18.9680 12.5698
v  -15.5919 -18.9680 -12.7251
v  -12.5698 -18.9680 -15.7472
v  12.7251 -18.9680 -15.7472
v  15.7472 -18.9680 12.5698
v  -12.5698 -18.9680 15.5919
v  -12.5698 19.2787 15.5919
v  12.7251 19.2787 15.5919
v  15.7472 19.2787 12.5698
v  15.7472 19.2787 -12.7251
v  12.7251 19.2787 -15.7472
v  -12.5698 19.2787 -15.7472
v  -15.5919 19.2787 -12.7251
v  -15.5919 19.2787 12.5698
v  15.7472 -12.4921 19.0457
v  15.7472 12.8028 19.0457
v  -15.5919 -12.4921 19.0457
v  19.2010 -12.4921 -15.7472
v  19.2010 12.8028 -15.7472
v  -15.5919 -12.4921 -19.2010
v  -15.5919 12.8028 -19.2010
v  -15.4030 -13.8143 19.0457
v  -17.7506 -12.4921 17.7506
v  -17.4268 -14.7587 17.7506
v  -19.0457 -12.4921 15.5919
v  -18.6410 -15.3253 15.5919
v  -19.0457 -15.5142 12.5698
v  -14.8364 -14.7587 19.0457
v  -16.4554 -16.3777 17.7506
v  -17.4268 -17.3491 15.5919
v  -17.7506 -17.6729 12.5698
v  -14.8364 -17.3491 17.7506
v  -15.4030 -18.5633 15.5919
v  -12.5698 -17.6729 17.7506
v  15.5583 -18.9680 13.8920
v  17.9058 -17.6729 12.5698
v  17.5821 -17.6729 14.8364
v  19.2010 -15.5142 12.5698
v  18.7963 -15.5142 15.4030
v  19.2010 -12.4921 15.5919
v  14.9916 -18.9680 14.8364
v  16.6106 -17.6729 16.4554
v  17.5821 -15.5142 17.4268
v  17.9058 -12.4921 17.7506
v  14.9916 -17.6729 17.4268
v  15.5583 -15.5142 18.6410
v  12.7251 -17.6729 17.7506
v  12.7251 -15.5142 19.0457
v  -19.0457 -12.4921 -15.7472
v  -19.0457 -13.8143 -15.5583
v  -17.7506 -12.4921 -17.9058
v  -17.7506 -14.7587 -17.5820
v  -15.5919 -15.3253 -18.7963
v  -12.5698 -15.5142 -19.2010
v  -19.0457 -14.7587 -14.9916
v  -17.7506 -16.3777 -16.6106
v  -15.5919 -17.3491 -17.5820
v  -12.5698 -17.6729 -17.9058
v  -17.7506 -17.3491 -14.9916
v  -15.5919 -18.5633 -15.5583
v  -17.7506 -17.6729 -12.7251
v  14.0473 -18.9680 -15.5583
v  12.7251 -17.6729 -17.9058
v  14.9916 -17.6729 -17.5820
v  12.7251 -15.5142 -19.2010
v  15.5583 -15.5142 -18.7963
v  15.7472 -12.4921 -19.2010
v  14.9916 -18.9680 -14.9916
v  16.6106 -17.6729 -16.6106
v  17.5821 -15.5142 -17.5820
v  17.9058 -12.4921 -17.9058
v  17.5821 -17.6729 -14.9916
v  18.7963 -15.5142 -15.5583
v  17.9058 -17.6729 -12.7251
v  19.2010 -15.5142 -12.7251
v  -12.5698 15.8249 19.0457
v  -13.8920 15.6360 19.0457
v  -12.5698 17.9835 17.7506
v  -14.8364 17.6597 17.7506
v  -15.4030 18.8740 15.5919
v  -14.8364 15.0693 19.0457
v  -16.4554 16.6883 17.7506
v  -17.4268 17.6597 15.5919
v  -17.7506 17.9835 12.5698
v  -17.4268 15.0693 17.7506
v  -18.6410 15.6360 15.5919
v  -19.0457 15.8249 12.5698
v  -17.7506 12.8028 17.7506
v  -19.0457 12.8028 15.5919
v  19.2010 15.8249 12.5698
v  19.2010 15.6360 13.8920
v  17.9058 17.9835 12.5698
v  17.9058 17.6597 14.8364
v  15.7472 18.8740 15.4030
v  19.2010 15.0693 14.8364
v  17.9058 16.6883 16.4554
v  15.7472 17.6597 17.4268
v  12.7251 17.9835 17.7506
v  17.9058 15.0693 17.4268
v  15.7472 15.6360 18.6410
v  12.7251 15.8249 19.0457
v  17.9058 12.8028 17.7506
v  -19.0457 15.8249 -12.7251
v  -19.0457 15.6360 -14.0473
v  -17.7506 17.9835 -12.7251
v  -17.7506 17.6597 -14.9916
v  -15.5919 18.8740 -15.5583
v  -19.0457 15.0693 -14.9916
v  -17.7506 16.6883 -16.6106
v  -15.5919 17.6597 -17.5820
v  -12.5698 17.9835 -17.9058
v  -17.7506 15.0693 -17.5820
v  -15.5919 15.6360 -18.7963
v  -12.5698 15.8249 -19.2010
v  -17.7506 12.8028 -17.9058
v  12.7251 15.8249 -19.2010
v  14.0473 15.6360 -19.2010
v  12.7251 17.9835 -17.9058
v  14.9916 17.6597 -17.9058
v  15.5583 18.8740 -15.7472
v  14.9916 15.0693 -19.2010
v  16.6106 16.6883 -17.9058
v  17.5821 17.6597 -15.7472
v  17.9058 17.9835 -12.7251
v  17.5821 15.0693 -17.9058
v  18.7963 15.6360 -15.7472
v  19.2010 15.8249 -12.7251
v  17.9058 12.8028 -17.9058
# 168 vertices

vn 0.0000 -1.0000 -0.0000
vn 0.0000 1.0000 -0.0000
vn 0.0000 0.0000 1.0000
vn 1.0000 0.0000 -0.0000
vn 0.0000 0.0000 -1.0000
vn -1.0000 0.0000 -0.0000
vn -0.0202 -0.1414 0.9897
vn 0.0202 -0.9897 0.1414
vn -0.9897 -0.1414 -0.0202
vn 0.1414 -0.9897 -0.0202
vn -0.1414 0.0202 0.9897
vn 0.9897 0.0202 0.1414
vn -0.9897 0.0202 -0.1414
vn 0.1414 0.0202 -0.9897
vn -0.1414 -0.9899 -0.0000
vn 0.0000 -0.9899 -0.1414
vn 0.1414 -0.9899 -0.0000
vn 0.0000 -0.9899 0.1414
vn 0.0000 0.9899 0.1414
vn 0.1414 0.9899 -0.0000
vn 0.0000 0.9899 -0.1414
vn -0.1414 0.9899 -0.0000
vn 0.1414 0.0000 0.9899
vn -0.1414 0.0000 0.9899
vn 0.9899 0.0000 -0.1414
vn -0.1414 0.0000 -0.9899
vn -0.1414 -0.0202 0.9897
vn -0.5131 -0.0733 0.8552
vn -0.8511 -0.1216 0.5107
vn -0.9802 -0.1400 0.1400
vn -0.1179 -0.0708 0.9905
vn -0.4319 -0.2592 0.8639
vn -0.7296 -0.4378 0.5253
vn -0.8484 -0.5090 0.1454
vn -0.0708 -0.1179 0.9905
vn -0.2592 -0.4319 0.8639
vn -0.4378 -0.7296 0.5253
vn -0.5090 -0.8484 0.1454
vn -0.0733 -0.5131 0.8552
vn -0.1216 -0.8511 0.5107
vn -0.1400 -0.9802 0.1400
vn 0.1414 -0.9897 0.0202
vn 0.5131 -0.8552 0.0733
vn 0.8511 -0.5107 0.1216
vn 0.9802 -0.1400 0.1400
vn 0.1179 -0.9905 0.0708
vn 0.4319 -0.8639 0.2592
vn 0.7296 -0.5253 0.4378
vn 0.8484 -0.1454 0.5090
vn 0.0708 -0.9905 0.1179
vn 0.2592 -0.8639 0.4319
vn 0.4378 -0.5253 0.7296
vn 0.5090 -0.1454 0.8484
vn 0.0733 -0.8552 0.5131
vn 0.1216 -0.5107 0.8511
vn 0.1400 -0.1400 0.9802
vn -0.9897 -0.0202 -0.1414
vn -0.8552 -0.0733 -0.5131
vn -0.5107 -0.1216 -0.8511
vn -0.1400 -0.1400 -0.9802
vn -0.9905 -0.0708 -0.1179
vn -0.8639 -0.2592 -0.4319
vn -0.5253 -0.4378 -0.7296
vn -0.1454 -0.5090 -0.8484
vn -0.9905 -0.1179 -0.0708
vn -0.8639 -0.4319 -0.2592
vn -0.5253 -0.7296 -0.4378
vn -0.1454 -0.8484 -0.5090
vn -0.8552 -0.5131 -0.0733
vn -0.5107 -0.8511 -0.1216
vn -0.1400 -0.9802 -0.1400
vn 0.0202 -0.9897 -0.1414
vn 0.0733 -0.8552 -0.5131
vn 0.1216 -0.5107 -0.8511
vn 0.1400 -0.1400 -0.9802
vn 0.0708 -0.9905 -0.1179
vn 0.2592 -0.8639 -0.4319
vn 0.4378 -0.5253 -0.7296
vn 0.5090 -0.1454 -0.8484
vn 0.1179 -0.9905 -0.0708
vn 0.4319 -0.8639 -0.2592
vn 0.7296 -0.5253 -0.4378
vn 0.8484 -0.1454 -0.5090
vn 0.5131 -0.8552 -0.0733
vn 0.8511 -0.5107 -0.1216
vn 0.9802 -0.1400 -0.1400
vn -0.0202 0.1414 0.9897
vn -0.0733 0.5131 0.8552
vn -0.1216 0.8511 0.5107
vn -0.1400 0.9802 0.1400
vn -0.0708 0.1179 0.9905
vn -0.2592 0.4319 0.8639
vn -0.4378 0.7296 0.5253
vn -0.5090 0.8484 0.1454
vn -0.1179 0.0708 0.9905
vn -0.4319 0.2592 0.8639
vn -0.7296 0.4378 0.5253
vn -0.8484 0.5090 0.1454
vn -0.5131 0.0733 0.8552
vn -0.8511 0.1216 0.5107
vn -0.9802 0.1400 0.1400
vn 0.9897 0.1414 0.0202
vn 0.8552 0.5131 0.0733
vn 0.5107 0.8511 0.1216
vn 0.1400 0.9802 0.1400
vn 0.9905 0.1179 0.0708
vn 0.8639 0.4319 0.2592
vn 0.5253 0.7296 0.4378
vn 0.1454 0.8484 0.5090
vn 0.9905 0.0708 0.1179
vn 0.8639 0.2592 0.4319
vn 0.5253 0.4378 0.7296
vn 0.1454 0.5090 0.8484
vn 0.8552 0.0733 0.5131
vn 0.5107 0.1216 0.8511
vn 0.1400 0.1400 0.9802
vn -0.9897 0.1414 -0.0202
vn -0.8552 0.5131 -0.0733
vn -0.5107 0.8511 -0.1216
vn -0.1400 0.9802 -0.1400
vn -0.9905 0.1179 -0.0708
vn -0.8639 0.4319 -0.2592
vn -0.5253 0.7296 -0.4378
vn -0.1454 0.8484 -0.5090
vn -0.9905 0.0708 -0.1179
vn -0.8639 0.2592 -0.4319
vn -0.5253 0.4378 -0.7296
vn -0.1454 0.5090 -0.8484
vn -0.8552 0.0733 -0.5131
vn -0.5107 0.1216 -0.8511
vn -0.1400 0.1400 -0.9802
vn 0.0202 0.1414 -0.9897
vn 0.0733 0.5131 -0.8552
vn 0.1216 0.8511 -0.5107
vn 0.1400 0.9802 -0.1400
vn 0.0708 0.1179 -0.9905
vn 0.2592 0.4319 -0.8639
vn 0.4378 0.7296 -0.5253
vn 0.5090 0.8484 -0.1454
vn 0.1179 0.0708 -0.9905
vn 0.4319 0.2592 -0.8639
vn 0.7296 0.4378 -0.5253
vn 0.8484 0.5090 -0.1454
vn 0.5131 0.0733 -0.8552
vn 0.8511 0.1216 -0.5107
vn 0.9802 0.1400 -0.1400
vn -0.5145 -0.8575 -0.0000
vn -0.8575 -0.5145 -0.0000
vn -0.9899 -0.1414 -0.0000
vn 0.0000 -0.8575 -0.5145
vn 0.0000 -0.5145 -0.8575
vn 0.0000 -0.1414 -0.9899
vn 0.5145 -0.8575 -0.0000
vn 0.8575 -0.5145 -0.0000
vn 0.9899 -0.1414 -0.0000
vn 0.0000 -0.8575 0.5145
vn 0.0000 -0.5145 0.8575
vn 0.0000 -0.1414 0.9899
vn 0.0000 0.8575 0.5145
vn 0.0000 0.5145 0.8575
vn 0.0000 0.1414 0.9899
vn 0.5145 0.8575 -0.0000
vn 0.8575 0.5145 -0.0000
vn 0.9899 0.1414 -0.0000
vn 0.0000 0.8575 -0.5145
vn 0.0000 0.5145 -0.8575
vn 0.0000 0.1414 -0.9899
vn -0.5145 0.8575 -0.0000
vn -0.8575 0.5145 -0.0000
vn -0.9899 0.1414 -0.0000
vn 0.5145 0.0000 0.8575
vn 0.8575 0.0000 0.5145
vn 0.9899 0.0000 0.1414
vn -0.5145 0.0000 0.8575
vn -0.8575 0.0000 0.5145
vn -0.9899 0.0000 0.1414
vn 0.8575 0.0000 -0.5145
vn 0.5145 0.0000 -0.8575
vn 0.1414 0.0000 -0.9899
vn -0.5145 0.0000 -0.8575
vn -0.8575 0.0000 -0.5145
vn -0.9899 0.0000 -0.1414
# 182 vertex normals

vt 0.1402 0.8598 0.0000
vt 0.1402 0.1402 0.0000
vt 0.8598 0.1402 0.0000
vt 0.8598 0.8598 0.0000
vt 0.9020 0.0980 0.0000
vt 0.9020 0.9020 0.0000
vt 0.0980 0.9020 0.0000
vt 0.0980 0.0980 0.0000
vt 0.1706 0.1285 0.0000
vt 0.8294 0.1285 0.0000
vt 0.8294 0.7872 0.0000
vt 0.1706 0.7872 0.0000
vt 0.8294 0.8294 0.0000
vt 0.1706 0.8294 0.0000
vt 0.1706 0.1706 0.0000
vt 0.8294 0.1706 0.0000
vt 0.1706 0.0807 0.0000
vt 0.8294 0.0807 0.0000
vt 0.8294 0.7394 0.0000
vt 0.1706 0.7394 0.0000
vt 0.8294 0.7877 0.0000
vt 0.1706 0.7877 0.0000
vt 0.1706 0.1622 0.0000
vt 0.8294 0.1622 0.0000
vt 0.0969 0.8216 0.0000
vt 0.0919 0.7872 0.0000
vt 0.9404 0.1026 0.0000
vt 0.9458 0.1402 0.0000
vt 0.9031 0.1295 0.0000
vt 0.9081 0.1622 0.0000
vt 0.1026 0.0596 0.0000
vt 0.1402 0.0542 0.0000
vt 0.8638 0.8610 0.0000
vt 0.8294 0.8659 0.0000
vt 0.1362 0.0969 0.0000
vt 0.1706 0.0919 0.0000
vt 0.1362 0.0921 0.0000
vt 0.1706 0.0874 0.0000
vt 0.8638 0.8132 0.0000
vt 0.8294 0.8181 0.0000
vt 0.8598 0.9458 0.0000
vt 0.1402 0.9458 0.0000
vt 0.0542 0.8598 0.0000
vt 0.0542 0.1402 0.0000
vt 0.8598 0.0542 0.0000
vt 0.9458 0.8598 0.0000
vt 0.0980 0.0020 0.0000
vt 0.9020 0.0020 0.0000
vt 0.9980 0.0980 0.0000
vt 0.9980 0.9020 0.0000
vt 0.9020 0.9980 0.0000
vt 0.0980 0.9980 0.0000
vt 0.0020 0.9020 0.0000
vt 0.0020 0.0980 0.0000
vt 0.1706 0.0498 0.0000
vt 0.8294 0.0498 0.0000
vt 0.1706 0.8659 0.0000
vt 0.8294 0.9081 0.0000
vt 0.1706 0.9081 0.0000
vt 0.1706 0.0020 0.0000
vt 0.8294 0.0020 0.0000
vt 0.1362 0.8610 0.0000
vt 0.8638 0.9479 0.0000
vt 0.8294 0.9479 0.0000
vt 0.8294 0.9158 0.0000
vt 0.8884 0.9158 0.0000
vt 0.8294 0.8625 0.0000
vt 0.9031 0.8625 0.0000
vt 0.9081 0.7877 0.0000
vt 0.1116 0.8462 0.0000
vt 0.1116 0.9137 0.0000
vt 0.0695 0.8884 0.0000
vt 0.9305 0.9158 0.0000
vt 0.9558 0.8625 0.0000
vt 0.9643 0.7877 0.0000
vt 0.0442 0.8462 0.0000
vt 0.0125 0.8610 0.0000
vt 0.0442 0.9137 0.0000
vt 0.9980 0.7877 0.0000
vt 0.9875 0.8625 0.0000
vt 0.0357 0.7872 0.0000
vt 0.0020 0.7872 0.0000
vt 0.9458 0.9404 0.0000
vt 0.8974 0.0596 0.0000
vt 0.9980 0.1362 0.0000
vt 0.9980 0.1706 0.0000
vt 0.9643 0.1706 0.0000
vt 0.9643 0.1116 0.0000
vt 0.9081 0.1706 0.0000
vt 0.9081 0.0969 0.0000
vt 0.8294 0.0919 0.0000
vt 0.9243 0.0757 0.0000
vt 0.9243 0.0020 0.0000
vt 0.9704 0.0296 0.0000
vt 0.9643 0.0695 0.0000
vt 0.9081 0.0442 0.0000
vt 0.8294 0.0357 0.0000
vt 0.9980 0.0757 0.0000
vt 0.0919 0.0547 0.0000
vt 0.0357 0.0695 0.0000
vt 0.0357 0.0273 0.0000
vt 0.0919 0.0020 0.0000
vt 0.9081 0.0125 0.0000
vt 0.0357 0.1285 0.0000
vt 0.0020 0.1285 0.0000
vt 0.0020 0.0941 0.0000
vt 0.0919 0.1285 0.0000
vt 0.8294 0.0874 0.0000
vt 0.8638 0.0921 0.0000
vt 0.8294 0.0340 0.0000
vt 0.8884 0.0420 0.0000
vt 0.9031 0.0120 0.0000
vt 0.0969 0.0020 0.0000
vt 0.0919 0.0807 0.0000
vt 0.8884 0.1061 0.0000
vt 0.9305 0.0661 0.0000
vt 0.9558 0.0420 0.0000
vt 0.0442 0.0020 0.0000
vt 0.0357 0.0807 0.0000
vt 0.9558 0.1061 0.0000
vt 0.9875 0.0921 0.0000
vt 0.0020 0.0807 0.0000
vt 0.0125 0.0020 0.0000
vt 0.9643 0.1622 0.0000
vt 0.9980 0.1622 0.0000
vt 0.0596 0.9458 0.0000
vt 0.0596 0.1026 0.0000
vt 0.0020 0.7738 0.0000
vt 0.0020 0.7394 0.0000
vt 0.0357 0.7394 0.0000
vt 0.0357 0.7984 0.0000
vt 0.0919 0.7394 0.0000
vt 0.0919 0.8132 0.0000
vt 0.1706 0.8181 0.0000
vt 0.0757 0.0757 0.0000
vt 0.0020 0.0757 0.0000
vt 0.0296 0.0296 0.0000
vt 0.0357 0.8406 0.0000
vt 0.0919 0.8659 0.0000
vt 0.9081 0.9558 0.0000
vt 0.9081 0.9875 0.0000
vt 0.8294 0.9980 0.0000
vt 0.8294 0.9643 0.0000
vt 0.0757 0.0020 0.0000
vt 0.9081 0.9031 0.0000
vt 0.9643 0.8884 0.0000
vt 0.9643 0.9305 0.0000
vt 0.9643 0.8294 0.0000
vt 0.9980 0.8294 0.0000
vt 0.9980 0.8638 0.0000
vt 0.9081 0.8294 0.0000
vt 0.9081 0.7872 0.0000
vt 0.9031 0.8216 0.0000
vt 0.9643 0.7872 0.0000
vt 0.9558 0.8462 0.0000
vt 0.9980 0.7872 0.0000
vt 0.9875 0.8610 0.0000
vt 0.0080 0.0020 0.0000
vt 0.8884 0.8462 0.0000
vt 0.9305 0.8884 0.0000
vt 0.9558 0.9137 0.0000
vt 0.0442 0.8625 0.0000
vt 0.0125 0.8625 0.0000
vt 0.0020 0.7877 0.0000
vt 0.0357 0.7877 0.0000
vt 0.8884 0.9137 0.0000
vt 0.0969 0.8625 0.0000
vt 0.1116 0.9158 0.0000
vt 0.0695 0.9158 0.0000
vt 0.0919 0.7877 0.0000
vt 0.1706 0.9158 0.0000
vt 0.1706 0.9479 0.0000
vt 0.1362 0.9479 0.0000
vt 0.1706 0.8625 0.0000
vt 0.0919 0.1706 0.0000
vt 0.0969 0.1362 0.0000
vt 0.0357 0.1706 0.0000
vt 0.0442 0.1116 0.0000
vt 0.0020 0.1706 0.0000
vt 0.0125 0.0969 0.0000
vt 0.9980 0.0080 0.0000
vt 0.1116 0.1116 0.0000
vt 0.0695 0.0695 0.0000
vt 0.0442 0.0442 0.0000
vt 0.9558 0.0498 0.0000
vt 0.9875 0.0498 0.0000
vt 0.9980 0.1285 0.0000
vt 0.9643 0.1285 0.0000
vt 0.1116 0.0442 0.0000
vt 0.0969 0.0125 0.0000
vt 0.9081 0.1285 0.0000
vt 0.9031 0.0498 0.0000
vt 0.1706 0.0357 0.0000
vt 0.0919 0.1622 0.0000
vt 0.0969 0.1295 0.0000
vt 0.0357 0.1622 0.0000
vt 0.0442 0.1061 0.0000
vt 0.0020 0.1622 0.0000
vt 0.0125 0.0921 0.0000
vt 0.0020 0.9920 0.0000
vt 0.1116 0.1061 0.0000
vt 0.0695 0.0661 0.0000
vt 0.0442 0.0420 0.0000
vt 0.9558 0.0020 0.0000
vt 0.9875 0.0020 0.0000
vt 0.9980 0.0807 0.0000
vt 0.9643 0.0807 0.0000
vt 0.1116 0.0420 0.0000
vt 0.0969 0.0120 0.0000
vt 0.9081 0.0807 0.0000
vt 0.9031 0.0020 0.0000
vt 0.1706 0.0340 0.0000
vt 0.9081 0.7394 0.0000
vt 0.9031 0.7738 0.0000
vt 0.9643 0.7394 0.0000
vt 0.9558 0.7984 0.0000
vt 0.9980 0.7394 0.0000
vt 0.9875 0.8132 0.0000
vt 0.9920 0.9980 0.0000
vt 0.8884 0.7984 0.0000
vt 0.9305 0.8406 0.0000
vt 0.9558 0.8659 0.0000
vt 0.0442 0.9081 0.0000
vt 0.0125 0.9081 0.0000
vt 0.0020 0.8294 0.0000
vt 0.0357 0.8294 0.0000
vt 0.8884 0.8659 0.0000
vt 0.0969 0.9081 0.0000
vt 0.1116 0.9643 0.0000
vt 0.0695 0.9643 0.0000
vt 0.0919 0.8294 0.0000
vt 0.1706 0.9643 0.0000
vt 0.1706 0.9980 0.0000
vt 0.1362 0.9980 0.0000
# 234 texture coords

g Box001
s 1
f 1/1/1 2/2/1 3/3/1 4/4/1 
f 5/5/2 6/6/2 7/7/2 8/8/2 
f 9/9/3 10/10/3 11/11/3 12/12/3 
f 13/13/4 14/14/4 15/15/4 16/16/4 
f 17/17/5 18/18/5 19/19/5 20/20/5 
f 21/21/6 22/22/6 23/23/6 24/24/6 
f 12/12/7 25/25/7 26/26/7 
f 3/3/8 27/27/8 28/28/8 
f 24/24/9 29/29/9 30/30/9 
f 2/2/10 31/31/10 32/32/10 
f 11/11/11 33/33/11 34/34/11 
f 15/15/12 35/35/12 36/36/12 
f 23/23/13 37/37/13 38/38/13 
f 19/19/14 39/39/14 40/40/14 
f 1/1/15 4/4/15 41/41/15 42/42/15 
f 2/2/16 1/1/16 43/43/16 44/44/16 
f 3/3/17 2/2/17 32/32/17 45/45/17 
f 4/4/18 3/3/18 28/28/18 46/46/18 
f 5/5/19 8/8/19 47/47/19 48/48/19 
f 6/6/20 5/5/20 49/49/20 50/50/20 
f 7/7/21 6/6/21 51/51/21 52/52/21 
f 8/8/22 7/7/22 53/53/22 54/54/22 
f 10/10/23 9/9/23 55/55/23 56/56/23 
f 12/12/24 11/11/24 34/34/24 57/57/24 
f 14/14/25 13/13/25 58/58/25 59/59/25 
f 18/18/26 17/17/26 60/60/26 61/61/26 
f 12/12/27 57/57/27 62/62/27 
f 62/63/28 57/64/28 63/65/28 64/66/28 
f 64/66/29 63/65/29 65/67/29 66/68/29 
f 66/68/30 65/67/30 21/21/30 67/69/30 
f 12/12/31 62/62/31 68/70/31 
f 68/70/32 62/62/32 64/71/32 69/72/32 
f 69/73/33 64/66/33 66/68/33 70/74/33 
f 70/74/34 66/68/34 67/69/34 71/75/34 
f 12/12/35 68/70/35 25/25/35 
f 72/76/36 25/25/36 68/70/36 69/72/36 
f 73/77/37 72/76/37 69/72/37 70/78/37 
f 41/79/38 73/80/38 70/74/38 71/75/38 
f 74/81/39 26/26/39 25/25/39 72/76/39 
f 46/82/40 74/81/40 72/76/40 73/77/40 
f 4/4/41 46/46/41 73/83/41 41/41/41 
f 3/3/42 45/45/42 75/84/42 
f 75/85/43 45/86/43 76/87/43 77/88/43 
f 77/88/44 76/87/44 78/89/44 79/90/44 
f 79/90/45 78/89/45 16/16/45 80/91/45 
f 3/3/46 75/84/46 81/92/46 
f 81/92/47 75/84/47 77/93/47 82/94/47 
f 82/95/48 77/88/48 79/90/48 83/96/48 
f 83/96/49 79/90/49 80/91/49 84/97/49 
f 3/3/50 81/92/50 27/27/50 
f 85/98/51 27/27/51 81/92/51 82/94/51 
f 86/99/52 85/100/52 82/101/52 83/102/52 
f 55/61/53 86/103/53 83/96/53 84/97/53 
f 87/104/54 28/105/54 27/106/54 85/100/54 
f 88/107/55 87/104/55 85/100/55 86/99/55 
f 9/9/56 88/107/56 86/99/56 55/55/56 
f 24/24/57 89/108/57 90/109/57 
f 90/109/58 89/108/58 91/110/58 92/111/58 
f 92/111/59 91/110/59 60/61/59 93/112/59 
f 93/113/60 60/60/60 17/17/60 94/114/60 
f 24/24/61 90/109/61 95/115/61 
f 95/115/62 90/109/62 92/111/62 96/116/62 
f 96/116/63 92/111/63 93/112/63 97/117/63 
f 97/118/64 93/113/64 94/114/64 98/119/64 
f 24/24/65 95/115/65 29/29/65 
f 99/120/66 29/29/66 95/115/66 96/116/66 
f 100/121/67 99/120/67 96/116/67 97/117/67 
f 43/122/68 100/123/68 97/118/68 98/119/68 
f 101/124/69 30/30/69 29/29/69 99/120/69 
f 42/125/70 101/124/70 99/120/70 100/121/70 
f 1/1/71 42/42/71 100/126/71 43/43/71 
f 2/2/72 44/44/72 102/127/72 
f 102/128/73 44/129/73 103/130/73 104/131/73 
f 104/131/74 103/130/74 105/132/74 106/133/74 
f 106/133/75 105/132/75 20/20/75 107/134/75 
f 2/2/76 102/127/76 108/135/76 
f 108/135/77 102/127/77 104/136/77 109/137/77 
f 109/138/78 104/131/78 106/133/78 110/139/78 
f 110/140/79 106/141/79 107/142/79 111/143/79 
f 2/2/80 108/135/80 31/31/80 
f 112/144/81 31/31/81 108/135/81 109/137/81 
f 113/145/82 112/146/82 109/147/82 110/140/82 
f 58/58/83 113/145/83 110/140/83 111/143/83 
f 114/148/84 32/149/84 31/150/84 112/146/84 
f 115/151/85 114/148/85 112/146/85 113/145/85 
f 13/13/86 115/151/86 113/145/86 58/58/86 
f 11/11/87 116/152/87 117/153/87 
f 117/153/88 116/152/88 118/154/88 119/155/88 
f 119/155/89 118/154/89 47/156/89 120/157/89 
f 120/158/90 47/47/90 8/8/90 54/54/90 
f 11/11/91 117/153/91 121/159/91 
f 121/159/92 117/153/92 119/155/92 122/160/92 
f 122/160/93 119/155/93 120/157/93 123/161/93 
f 123/162/94 120/163/94 54/164/94 124/165/94 
f 11/11/95 121/159/95 33/33/95 
f 125/166/96 33/33/96 121/159/96 122/160/96 
f 126/167/97 125/168/97 122/169/97 123/162/97 
f 127/170/98 126/167/98 123/162/98 124/165/98 
f 128/171/99 34/172/99 33/173/99 125/168/99 
f 129/174/100 128/171/100 125/168/100 126/167/100 
f 22/22/101 129/174/101 126/167/101 127/170/101 
f 15/15/102 130/175/102 131/176/102 
f 131/176/103 130/175/103 132/177/103 133/178/103 
f 133/178/104 132/177/104 49/179/104 134/180/104 
f 134/181/105 49/49/105 5/5/105 48/48/105 
f 15/15/106 131/176/106 135/182/106 
f 135/182/107 131/176/107 133/178/107 136/183/107 
f 136/183/108 133/178/108 134/180/108 137/184/108 
f 137/185/109 134/186/109 48/187/109 138/188/109 
f 15/15/110 135/182/110 35/35/110 
f 139/189/111 35/35/111 135/182/111 136/183/111 
f 140/190/112 139/189/112 136/183/112 137/184/112 
f 141/191/113 140/192/113 137/185/113 138/188/113 
f 142/193/114 36/36/114 35/35/114 139/189/114 
f 56/60/115 142/193/115 139/189/115 140/190/115 
f 10/10/116 56/56/116 140/192/116 141/191/116 
f 23/23/117 143/194/117 144/195/117 
f 144/195/118 143/194/118 145/196/118 146/197/118 
f 146/197/119 145/196/119 53/198/119 147/199/119 
f 147/200/120 53/53/120 7/7/120 52/52/120 
f 23/23/121 144/195/121 148/201/121 
f 148/201/122 144/195/122 146/197/122 149/202/122 
f 149/202/123 146/197/123 147/199/123 150/203/123 
f 150/204/124 147/205/124 52/206/124 151/207/124 
f 23/23/125 148/201/125 37/37/125 
f 152/208/126 37/37/126 148/201/126 149/202/126 
f 153/209/127 152/208/127 149/202/127 150/203/127 
f 154/210/128 153/211/128 150/204/128 151/207/128 
f 155/212/129 38/38/129 37/37/129 152/208/129 
f 61/60/130 155/212/130 152/208/130 153/209/130 
f 18/18/131 61/61/131 153/211/131 154/210/131 
f 19/19/132 156/213/132 157/214/132 
f 157/214/133 156/213/133 158/215/133 159/216/133 
f 159/216/134 158/215/134 51/217/134 160/218/134 
f 160/219/135 51/51/135 6/6/135 50/50/135 
f 19/19/136 157/214/136 161/220/136 
f 161/220/137 157/214/137 159/216/137 162/221/137 
f 162/221/138 159/216/138 160/218/138 163/222/138 
f 163/223/139 160/224/139 50/225/139 164/226/139 
f 19/19/140 161/220/140 39/39/140 
f 165/227/141 39/39/141 161/220/141 162/221/141 
f 166/228/142 165/229/142 162/230/142 163/223/142 
f 167/231/143 166/228/143 163/223/143 164/226/143 
f 168/232/144 40/233/144 39/234/144 165/229/144 
f 59/59/145 168/232/145 165/229/145 166/228/145 
f 14/14/146 59/59/146 166/228/146 167/231/146 
f 42/125/147 41/79/147 71/75/147 101/124/147 
f 101/124/148 71/75/148 67/69/148 30/30/148 
f 30/30/149 67/69/149 21/21/149 24/24/149 
f 44/129/150 43/122/150 98/119/150 103/130/150 
f 103/130/151 98/119/151 94/114/151 105/132/151 
f 105/132/152 94/114/152 17/17/152 20/20/152 
f 45/86/153 32/149/153 114/148/153 76/87/153 
f 76/87/154 114/148/154 115/151/154 78/89/154 
f 78/89/155 115/151/155 13/13/155 16/16/155 
f 46/82/156 28/105/156 87/104/156 74/81/156 
f 74/81/157 87/104/157 88/107/157 26/26/157 
f 26/26/158 88/107/158 9/9/158 12/12/158 
f 48/187/159 47/156/159 118/154/159 138/188/159 
f 138/188/160 118/154/160 116/152/160 141/191/160 
f 141/191/161 116/152/161 11/11/161 10/10/161 
f 50/225/162 49/179/162 132/177/162 164/226/162 
f 164/226/163 132/177/163 130/175/163 167/231/163 
f 167/231/164 130/175/164 15/15/164 14/14/164 
f 52/206/165 51/217/165 158/215/165 151/207/165 
f 151/207/166 158/215/166 156/213/166 154/210/166 
f 154/210/167 156/213/167 19/19/167 18/18/167 
f 54/164/168 53/198/168 145/196/168 124/165/168 
f 124/165/169 145/196/169 143/194/169 127/170/169 
f 127/170/170 143/194/170 23/23/170 22/22/170 
f 56/60/171 55/61/171 84/97/171 142/193/171 
f 142/193/172 84/97/172 80/91/172 36/36/172 
f 36/36/173 80/91/173 16/16/173 15/15/173 
f 57/64/174 34/172/174 128/171/174 63/65/174 
f 63/65/175 128/171/175 129/174/175 65/67/175 
f 65/67/176 129/174/176 22/22/176 21/21/176 
f 59/59/177 58/58/177 111/143/177 168/232/177 
f 168/232/178 111/143/178 107/142/178 40/233/178 
f 40/40/179 107/134/179 20/20/179 19/19/179 
f 61/60/180 60/61/180 91/110/180 155/212/180 
f 155/212/181 91/110/181 89/108/181 38/38/181 
f 38/38/182 89/108/182 24/24/182 23/23/182 
# 150 polygons - 32 triangles

